TITLE ""
FILE "TOEIC LR Kinnojyukugo_11.mp3" MP3
  TRACK 01 AUDIO
    TITLE "TOEIC LR Kinnojyukugo_11_01"
    INDEX 01 00:00:00
  TRACK 02 AUDIO
    TITLE "TOEIC LR Kinnojyukugo_11_02"
    INDEX 01 00:00:12
  TRACK 03 AUDIO
    TITLE "TOEIC LR Kinnojyukugo_11_03"
    INDEX 01 00:01:39
  TRACK 04 AUDIO
    TITLE "TOEIC LR Kinnojyukugo_11_04"
    INDEX 01 00:02:05
  TRACK 05 AUDIO
    TITLE "TOEIC LR Kinnojyukugo_11_05"
    INDEX 01 00:04:30
  TRACK 06 AUDIO
    TITLE "TOEIC LR Kinnojyukugo_11_06"
    INDEX 01 00:05:29
  TRACK 07 AUDIO
    TITLE "TOEIC LR Kinnojyukugo_11_07"
    INDEX 01 00:06:40
  TRACK 08 AUDIO
    TITLE "TOEIC LR Kinnojyukugo_11_08"
    INDEX 01 00:07:03
  TRACK 09 AUDIO
    TITLE "TOEIC LR Kinnojyukugo_11_09"
    INDEX 01 00:08:57
  TRACK 10 AUDIO
    TITLE "TOEIC LR Kinnojyukugo_11_10"
    INDEX 01 00:09:58
  TRACK 11 AUDIO
    TITLE "TOEIC LR Kinnojyukugo_11_11"
    INDEX 01 00:11:18
  TRACK 12 AUDIO
    TITLE "TOEIC LR Kinnojyukugo_11_12"
    INDEX 01 00:11:55
  TRACK 13 AUDIO
    TITLE "TOEIC LR Kinnojyukugo_11_13"
    INDEX 01 00:13:64
  TRACK 14 AUDIO
    TITLE "TOEIC LR Kinnojyukugo_11_14"
    INDEX 01 00:14:63
  TRACK 15 AUDIO
    TITLE "TOEIC LR Kinnojyukugo_11_15"
    INDEX 01 00:16:09
  TRACK 16 AUDIO
    TITLE "TOEIC LR Kinnojyukugo_11_16"
    INDEX 01 00:16:49
  TRACK 17 AUDIO
    TITLE "TOEIC LR Kinnojyukugo_11_17"
    INDEX 01 00:19:53
  TRACK 18 AUDIO
    TITLE "TOEIC LR Kinnojyukugo_11_18"
    INDEX 01 00:20:52
  TRACK 19 AUDIO
    TITLE "TOEIC LR Kinnojyukugo_11_19"
    INDEX 01 00:21:65
  TRACK 20 AUDIO
    TITLE "TOEIC LR Kinnojyukugo_11_20"
    INDEX 01 00:22:33
  TRACK 21 AUDIO
    TITLE "TOEIC LR Kinnojyukugo_11_21"
    INDEX 01 00:24:44
  TRACK 22 AUDIO
    TITLE "TOEIC LR Kinnojyukugo_11_22"
    INDEX 01 00:25:46
  TRACK 23 AUDIO
    TITLE "TOEIC LR Kinnojyukugo_11_23"
    INDEX 01 00:27:03
  TRACK 24 AUDIO
    TITLE "TOEIC LR Kinnojyukugo_11_24"
    INDEX 01 00:27:40
  TRACK 25 AUDIO
    TITLE "TOEIC LR Kinnojyukugo_11_25"
    INDEX 01 00:29:18
  TRACK 26 AUDIO
    TITLE "TOEIC LR Kinnojyukugo_11_26"
    INDEX 01 00:30:17
  TRACK 27 AUDIO
    TITLE "TOEIC LR Kinnojyukugo_11_27"
    INDEX 01 00:31:58
  TRACK 28 AUDIO
    TITLE "TOEIC LR Kinnojyukugo_11_28"
    INDEX 01 00:32:20
  TRACK 29 AUDIO
    TITLE "TOEIC LR Kinnojyukugo_11_29"
    INDEX 01 00:34:11
  TRACK 30 AUDIO
    TITLE "TOEIC LR Kinnojyukugo_11_30"
    INDEX 01 00:35:13
  TRACK 31 AUDIO
    TITLE "TOEIC LR Kinnojyukugo_11_31"
    INDEX 01 00:36:45
  TRACK 32 AUDIO
    TITLE "TOEIC LR Kinnojyukugo_11_32"
    INDEX 01 00:37:08
  TRACK 33 AUDIO
    TITLE "TOEIC LR Kinnojyukugo_11_33"
    INDEX 01 00:39:38
  TRACK 34 AUDIO
    TITLE "TOEIC LR Kinnojyukugo_11_34"
    INDEX 01 00:40:39
  TRACK 35 AUDIO
    TITLE "TOEIC LR Kinnojyukugo_11_35"
    INDEX 01 00:41:58
  TRACK 36 AUDIO
    TITLE "TOEIC LR Kinnojyukugo_11_36"
    INDEX 01 00:42:24
  TRACK 37 AUDIO
    TITLE "TOEIC LR Kinnojyukugo_11_37"
    INDEX 01 00:44:15
  TRACK 38 AUDIO
    TITLE "TOEIC LR Kinnojyukugo_11_38"
    INDEX 01 00:45:15
  TRACK 39 AUDIO
    TITLE "TOEIC LR Kinnojyukugo_11_39"
    INDEX 01 00:46:36
  TRACK 40 AUDIO
    TITLE "TOEIC LR Kinnojyukugo_11_40"
    INDEX 01 00:46:73
  TRACK 41 AUDIO
    TITLE "TOEIC LR Kinnojyukugo_11_41"
    INDEX 01 00:49:13
  TRACK 42 AUDIO
    TITLE "TOEIC LR Kinnojyukugo_11_42"
    INDEX 01 00:50:12
  TRACK 43 AUDIO
    TITLE "TOEIC LR Kinnojyukugo_11_43"
    INDEX 01 00:51:53
  TRACK 44 AUDIO
    TITLE "TOEIC LR Kinnojyukugo_11_44"
    INDEX 01 00:52:17
  TRACK 45 AUDIO
    TITLE "TOEIC LR Kinnojyukugo_11_45"
    INDEX 01 00:54:08
  TRACK 46 AUDIO
    TITLE "TOEIC LR Kinnojyukugo_11_46"
    INDEX 01 00:55:07
  TRACK 47 AUDIO
    TITLE "TOEIC LR Kinnojyukugo_11_47"
    INDEX 01 00:56:36
  TRACK 48 AUDIO
    TITLE "TOEIC LR Kinnojyukugo_11_48"
    INDEX 01 00:57:02
  TRACK 49 AUDIO
    TITLE "TOEIC LR Kinnojyukugo_11_49"
    INDEX 01 00:59:29
  TRACK 50 AUDIO
    TITLE "TOEIC LR Kinnojyukugo_11_50"
    INDEX 01 01:00:30
  TRACK 51 AUDIO
    TITLE "TOEIC LR Kinnojyukugo_11_51"
    INDEX 01 01:01:41
  TRACK 52 AUDIO
    TITLE "TOEIC LR Kinnojyukugo_11_52"
    INDEX 01 01:02:06
  TRACK 53 AUDIO
    TITLE "TOEIC LR Kinnojyukugo_11_53"
    INDEX 01 01:04:20
  TRACK 54 AUDIO
    TITLE "TOEIC LR Kinnojyukugo_11_54"
    INDEX 01 01:05:27
  TRACK 55 AUDIO
    TITLE "TOEIC LR Kinnojyukugo_11_55"
    INDEX 01 01:06:46
  TRACK 56 AUDIO
    TITLE "TOEIC LR Kinnojyukugo_11_56"
    INDEX 01 01:07:07
  TRACK 57 AUDIO
    TITLE "TOEIC LR Kinnojyukugo_11_57"
    INDEX 01 01:09:21
  TRACK 58 AUDIO
    TITLE "TOEIC LR Kinnojyukugo_11_58"
    INDEX 01 01:10:21
  TRACK 59 AUDIO
    TITLE "TOEIC LR Kinnojyukugo_11_59"
    INDEX 01 01:11:38
  TRACK 60 AUDIO
    TITLE "TOEIC LR Kinnojyukugo_11_60"
    INDEX 01 01:11:75
  TRACK 61 AUDIO
    TITLE "TOEIC LR Kinnojyukugo_11_61"
    INDEX 01 01:14:15
  TRACK 62 AUDIO
    TITLE "TOEIC LR Kinnojyukugo_11_62"
    INDEX 01 01:15:22
  TRACK 63 AUDIO
    TITLE "TOEIC LR Kinnojyukugo_11_63"
    INDEX 01 01:16:39
  TRACK 64 AUDIO
    TITLE "TOEIC LR Kinnojyukugo_11_64"
    INDEX 01 01:17:01
  TRACK 65 AUDIO
    TITLE "TOEIC LR Kinnojyukugo_11_65"
    INDEX 01 01:20:72
  TRACK 66 AUDIO
    TITLE "TOEIC LR Kinnojyukugo_11_66"
    INDEX 01 01:21:73
  TRACK 67 AUDIO
    TITLE "TOEIC LR Kinnojyukugo_11_67"
    INDEX 01 01:23:06
  TRACK 68 AUDIO
    TITLE "TOEIC LR Kinnojyukugo_11_68"
    INDEX 01 01:23:43
  TRACK 69 AUDIO
    TITLE "TOEIC LR Kinnojyukugo_11_69"
    INDEX 01 01:25:58
  TRACK 70 AUDIO
    TITLE "TOEIC LR Kinnojyukugo_11_70"
    INDEX 01 01:26:55
  TRACK 71 AUDIO
    TITLE "TOEIC LR Kinnojyukugo_11_71"
    INDEX 01 01:28:07
  TRACK 72 AUDIO
    TITLE "TOEIC LR Kinnojyukugo_11_72"
    INDEX 01 01:28:46
  TRACK 73 AUDIO
    TITLE "TOEIC LR Kinnojyukugo_11_73"
    INDEX 01 01:32:01
  TRACK 74 AUDIO
    TITLE "TOEIC LR Kinnojyukugo_11_74"
    INDEX 01 01:33:06
  TRACK 75 AUDIO
    TITLE "TOEIC LR Kinnojyukugo_11_75"
    INDEX 01 01:34:11
  TRACK 76 AUDIO
    TITLE "TOEIC LR Kinnojyukugo_11_76"
    INDEX 01 01:34:51
  TRACK 77 AUDIO
    TITLE "TOEIC LR Kinnojyukugo_11_77"
    INDEX 01 01:38:03
  TRACK 78 AUDIO
    TITLE "TOEIC LR Kinnojyukugo_11_78"
    INDEX 01 01:39:07
  TRACK 79 AUDIO
    TITLE "TOEIC LR Kinnojyukugo_11_79"
    INDEX 01 01:40:53
  TRACK 80 AUDIO
    TITLE "TOEIC LR Kinnojyukugo_11_80"
    INDEX 01 01:41:06
  TRACK 81 AUDIO
    TITLE "TOEIC LR Kinnojyukugo_11_81"
    INDEX 01 01:44:16
  TRACK 82 AUDIO
    TITLE "TOEIC LR Kinnojyukugo_11_82"
    INDEX 01 01:45:25
  TRACK 83 AUDIO
    TITLE "TOEIC LR Kinnojyukugo_11_83"
    INDEX 01 01:46:32
  TRACK 84 AUDIO
    TITLE "TOEIC LR Kinnojyukugo_11_84"
    INDEX 01 01:46:69
  TRACK 85 AUDIO
    TITLE "TOEIC LR Kinnojyukugo_11_85"
    INDEX 01 01:48:41
  TRACK 86 AUDIO
    TITLE "TOEIC LR Kinnojyukugo_11_86"
    INDEX 01 01:49:50
  TRACK 87 AUDIO
    TITLE "TOEIC LR Kinnojyukugo_11_87"
    INDEX 01 01:50:69
  TRACK 88 AUDIO
    TITLE "TOEIC LR Kinnojyukugo_11_88"
    INDEX 01 01:51:35
  TRACK 89 AUDIO
    TITLE "TOEIC LR Kinnojyukugo_11_89"
    INDEX 01 01:53:52
